<svg width="275" height="275" viewBox="0 0 275 275" fill="none" xmlns="http://www.w3.org/2000/svg">
<path d="M44.9091 28H18.0909C9.20415 28 2 35.1858 2 44.05V225.95C2 234.814 9.20415 242 18.0909 242H44.9091C53.7959 242 61 234.814 61 225.95V44.05C61 35.1858 53.7959 28 44.9091 28Z" fill="#61A896"/>
<path d="M18.0908 31H44.9092C52.1462 31 57.9999 36.8498 58 44.0498V225.95C57.9999 233.15 52.1462 239 44.9092 239H18.0908C10.8538 239 5.00011 233.15 5 225.95V44.0498C5.00011 36.8498 10.8538 31 18.0908 31Z" stroke="black" stroke-opacity="0.08" stroke-width="6"/>
<path d="M120.672 35.7581L94.276 31.5774C85.5292 30.192 77.3154 36.1597 75.9301 44.9065L48.3376 219.119C46.9522 227.866 52.9198 236.079 61.6666 237.465L88.0624 241.645C96.8092 243.031 105.023 237.063 106.408 228.316L134.001 54.104C135.386 45.3572 129.419 37.1434 120.672 35.7581Z" fill="#198166"/>
<path d="M93.8069 34.5405L120.202 38.7212C127.313 39.8473 132.164 46.5246 131.038 53.635L103.446 227.847C102.319 234.957 95.642 239.809 88.5317 238.683L62.1361 234.502C55.0258 233.376 50.1745 226.699 51.3006 219.588L78.8931 45.376C80.0193 38.2657 86.6966 33.4143 93.8069 34.5405Z" stroke="black" stroke-opacity="0.08" stroke-width="6"/>
<path d="M194.157 47.6274L168.74 39.369C160.318 36.6324 151.272 41.2417 148.535 49.664L95.6813 212.332C92.9447 220.754 97.5539 229.8 105.976 232.537L131.393 240.795C139.816 243.532 148.862 238.923 151.598 230.5L204.452 67.8326C207.189 59.4102 202.58 50.364 194.157 47.6274Z" fill="#156B54"/>
<path d="M167.814 42.2223L193.23 50.4806C200.077 52.7052 203.824 60.0593 201.599 66.9059L148.745 229.574C146.52 236.42 139.167 240.166 132.32 237.942L106.904 229.683C100.057 227.459 96.31 220.106 98.5343 213.259L151.388 50.5913C153.613 43.7447 160.967 39.9977 167.814 42.2223Z" stroke="black" stroke-opacity="0.08" stroke-width="6"/>
<path d="M263.538 62.8987L246.075 54.0013C236.431 49.0874 225.168 51.866 220.918 60.2075L146.526 206.209C142.276 214.551 146.649 225.296 156.293 230.21L173.755 239.107C183.399 244.021 194.662 241.243 198.912 232.901L273.304 86.8997C277.554 78.5582 273.182 67.8126 263.538 62.8987Z" fill="#115544"/>
<path d="M244.714 56.6745L262.175 65.5717C270.721 69.9256 273.95 79.0236 270.631 85.5379L196.24 231.539C192.921 238.054 183.662 240.788 175.117 236.434L157.655 227.537C149.11 223.183 145.88 214.085 149.199 207.571L223.591 61.5695C226.91 55.0552 236.169 52.3206 244.714 56.6745Z" stroke="black" stroke-opacity="0.08" stroke-width="6"/>
</svg>
